PathFileType	4	(X/Y/Z)	67_2_19_p0_0-247_filt_butterworth.trc
DataRate	CameraRate	NumFrames	NumMarkers	Units	OrigDataRate	OrigDataStartFrame	OrigNumFrames
60.0	60.0	6	27	m	60.0	30	247
Frame#	Time	RHip			RKnee			RAnkle			RBigToe			RSmallToe			RHeel			LHip			LKnee			LAnkle			LBigToe			LSmallToe			LHeel			Neck			Head			Nose			RShoulder			RElbow			RWrist			RThumb			RIndex			RPinky			LShoulder			LElbow			LWrist			LThumb			LIndex			LPinky			
		X1	Y1	Z1	X2	Y2	Z2	X3	Y3	Z3	X4	Y4	Z4	X5	Y5	Z5	X6	Y6	Z6	X7	Y7	Z7	X8	Y8	Z8	X9	Y9	Z9	X10	Y10	Z10	X11	Y11	Z11	X12	Y12	Z12	X13	Y13	Z13	X14	Y14	Z14	X15	Y15	Z15	X16	Y16	Z16	X17	Y17	Z17	X18	Y18	Z18	X19	Y19	Z19	X20	Y20	Z20	X21	Y21	Z21	X22	Y22	Z22	X23	Y23	Z23	X24	Y24	Z24	X25	Y25	Z25	X26	Y26	Z26	X27	Y27	Z27	
30	0.5	0.39599501522603864	0.8112593058916223	0.6383051600051113	0.3871418321719082	0.3319116328272793	0.7774484950715558	0.33822642652076773	-0.13260384051340582	0.8879248994531233	0.3471731396134957	-0.1152868688362273	0.6095474840345363	0.4015294813353272	-0.12938357814100193	0.6702133548850946	0.3291357560173443	-0.1785298845132976	0.9267655205311641	0.22322675941222103	0.806033134718148	0.6573548073975712	0.19381889867559077	0.33180918732462006	0.775095876212079	0.18187307986941367	-0.09618584476054604	0.8323546995387185	0.20605839558887926	-0.12179492566389476	0.6463460365433337	0.15527070166164375	-0.10435715822582944	0.6655340458482701	0.19385762201100237	-0.17009746024507963	0.8747636045629843	0.32721578392899997	1.353399934936014	0.6436989991042132	0.32581094931204746	1.592381159607037	0.6006199472270628	0.3280375885435204	1.4742104085812595	0.5814008899805485	0.4758694381978388	1.2443498547753664	0.6707925523738205	0.4744056683097713	0.9565825452995822	0.634122893553685	0.36362556788738554	0.7446224379819524	0.5576403680781713	0.2832521026850102	0.6513756522938166	0.5464455543288145	0.28234033876750764	0.6423563568316736	0.5474708016168497	0.29162411386503345	0.6469783002902674	0.5471214926139221	0.16538076122693435	1.2663685953669641	0.6853050935812046	0.1625823016947492	1.0118033765517334	0.6060783363718096	0.25967066929170035	0.7842237422128033	0.5089980928194199	0.32575347084589273	0.6963023697256067	0.46529114970472474	0.3212168068248097	0.6643944848896752	0.4935339520860643	0.2827798749589725	0.6553602930148803	0.5472057950207081	
31	0.5166666666666667	0.3959313589225123	0.8114987819498747	0.6378845834439022	0.3871027311178746	0.33188368150741326	0.7773499070595166	0.33828120631506153	-0.13234110111978414	0.8874843422106486	0.34727583261454875	-0.11549207508655873	0.6092486023410637	0.40156487341957225	-0.12949695727551158	0.6699659458055983	0.32923286636922755	-0.1784731195142911	0.9272531837112286	0.22326676269025142	0.80604138582643	0.6573494592610915	0.19373087903716676	0.33143748681359564	0.7751063422770781	0.18188227483199873	-0.09605158601768296	0.832316973851787	0.20604377648316974	-0.12180240603669026	0.646358488075945	0.15523780799392303	-0.10436252567975302	0.6655458109374965	0.1939346806020059	-0.17009081179393803	0.8747404801640942	0.327232052368849	1.3534127451520734	0.6436825058909732	0.32579214000359413	1.5922914871158498	0.6006080663299913	0.32807192619195835	1.4742232559987958	0.5813843372930828	0.4765221232368162	1.2443361652016514	0.6709122837872634	0.47492011674877066	0.9568620453881551	0.6328509932760531	0.363256836138685	0.7443194259429307	0.5588402282090659	0.28414322159962646	0.651371624273306	0.5466067215316348	0.2830668392737551	0.6421457632931717	0.5477316638679801	0.2916413225327805	0.647160504756712	0.5473724070336924	0.16537487351098082	1.2662782711439637	0.685295966730083	0.16257307100667684	1.0117945094259728	0.6061381050124413	0.2598384200989289	0.7833339963091253	0.5099261837617368	0.32823903261828713	0.6967347428761992	0.46563526248292086	0.3222047139035884	0.66490758541034	0.49194241801532146	0.28290212798577263	0.6544066144095146	0.5472784505705842	
32	0.5333333333333333	0.3957936588907683	0.811825722471942	0.6372526261430884	0.3869828562292466	0.3318309202057467	0.7772018269956619	0.33829920244848055	-0.13226005365127919	0.8872119533207175	0.3473668164777569	-0.1157414954211468	0.6095132803786287	0.40138758341201214	-0.12932485585466633	0.6698368484005316	0.32930538659856134	-0.178372102209498	0.9275298101615828	0.22333234742646713	0.8059350658511328	0.6573342616031246	0.1935982436072228	0.33110266605680205	0.7751155910029961	0.1818957209528803	-0.09588200642330946	0.8322749133148943	0.20604423401799093	-0.12182048764646158	0.6464033228836676	0.1552210448807261	-0.10437057441983966	0.6655953316867198	0.19404417476326255	-0.1699448483858474	0.8745865503962035	0.32725767429059793	1.3534226863811918	0.6436720004743668	0.32571215206256254	1.5922175003794141	0.6005761887491429	0.3280949815770826	1.474237024887962	0.5813462455634067	0.47734869818590564	1.2443239995957835	0.6710610476646954	0.4751630218430217	0.9569815913514377	0.6324768197801858	0.36319612217375336	0.7442500895158006	0.5591340783051371	0.28522979823318023	0.6511653038714426	0.5469516584668755	0.28414023814765377	0.6417400449305584	0.5488513656867937	0.29204062479879006	0.6470999719027214	0.5485063627865887	0.16537137953377556	1.26632188844092	0.6852570453419771	0.16255369127851904	1.0117993415336402	0.606127386148552	0.2601528419671043	0.782299679674954	0.5114857360153581	0.33078915838821016	0.6972767598467219	0.4663670993963943	0.3234636027313661	0.6652202829795604	0.49105639152117464	0.2830517673662689	0.6531981949108423	0.5474067357752487	
33	0.55	0.3955644714117199	0.8122351178958908	0.6363830835724383	0.38678286621762153	0.33176485938360356	0.7770134101129649	0.338304405591383	-0.13230327581722945	0.8870071271563145	0.3474016178719417	-0.11584537027132336	0.6106836708620778	0.40113305133897537	-0.12871697818495276	0.6699104784764202	0.32933335284609566	-0.1782546643679944	0.9274616038638421	0.223403446853095	0.8056691207974594	0.6573002002016675	0.1935093054562819	0.3308284884195877	0.7750977674575161	0.18191310551494097	-0.09570771843615711	0.8322368672984733	0.2060608862862599	-0.12184602364461507	0.6464733842432235	0.15523457974608718	-0.10438113851374567	0.6656926568793956	0.1941955037869294	-0.16968935251940426	0.8742720189869841	0.32728968237275113	1.353424865043857	0.6436697732329819	0.3256289165374944	1.592272627000111	0.6005499442027165	0.32806859338654326	1.4742451480386043	0.5813103250656358	0.47824127441859055	1.2443231319961654	0.6712130587059021	0.4752270938654459	0.95698086458052	0.632688253267432	0.3633098500886831	0.7443428065380144	0.5588985989477998	0.2865873511774224	0.6506453901398764	0.5475488521636256	0.2856656474169759	0.641154742577712	0.5508824768700921	0.29289252637621616	0.6467852062245956	0.5505009908702896	0.16536611982636723	1.2665979762861588	0.6851477762192435	0.16253148281081808	1.0117944780453905	0.6061497439705413	0.2606083044530651	0.7811626372668802	0.5136148008399631	0.33320972373636104	0.697897943596793	0.467071707345884	0.32495654342236713	0.6652676485289631	0.4910477245599313	0.2832225553277283	0.6518303747665641	0.5475826014293981	
34	0.5666666666666667	0.39528574325910465	0.8126730981621937	0.6355001463627694	0.38649465539348693	0.3316701731272277	0.7767818999653295	0.3383548629349327	-0.1323494162558228	0.8866585806241808	0.34744571366135624	-0.11572050911717743	0.6127861618667475	0.4010087672693022	-0.1277260972799538	0.6701786264468335	0.32931941292328837	-0.17814354719444844	0.9271442257100064	0.22345909402055217	0.8052745635363063	0.6572445443410687	0.1935066695439672	0.330611690574229	0.7750448416900777	0.18192923411941522	-0.09551525435443231	0.8321983735305911	0.20609138384128797	-0.12187663155536456	0.646561927778407	0.1552845320524604	-0.10439754332239562	0.6658442699716054	0.19432243175848812	-0.1694287045951742	0.874049527998257	0.32730672210766876	1.353420418943816	0.6436618517760114	0.32567798205061865	1.5925437787959593	0.6005726634589601	0.3279579205033921	1.4742329148808515	0.5813304611666693	0.4790861182691256	1.2443483905778026	0.6713511794670091	0.4752668658015964	0.9569506112022617	0.6330296366983263	0.3634363404728994	0.744486356259849	0.5585979019401777	0.2883039798399306	0.6498321648712467	0.5484324766022595	0.2877358449141215	0.6404504081997627	0.5536051999302926	0.2941214937799172	0.6463162015811319	0.5530307255208213	0.16535525582942695	1.2671276549552355	0.6849453124682916	0.16252902146408235	1.0117842207507572	0.6061283883425346	0.2611756165836167	0.7799279991507576	0.5161004309637013	0.33537062089159064	0.6985402823459708	0.467671651809897	0.32669957583870146	0.6651013714128606	0.4916717125003719	0.28342446601353544	0.6503285036266279	0.5477782612872345	
35	0.5833333333333334	0.3950816886505663	0.8130675214438517	0.6349362035208914	0.3861083703352759	0.3315430052407889	0.7765029699337296	0.3385058689517524	-0.1322874743344698	0.8859727383195277	0.34760527391130913	-0.11545396940939434	0.6156002428482912	0.401179369526599	-0.1265306923614521	0.6705491255507827	0.3292804639107324	-0.17804739333243294	0.9267865143551219	0.2234998489427886	0.8048725283916972	0.657178620179288	0.1935804778275834	0.330458054209525	0.7749740021463863	0.18193662274704975	-0.09526515521987076	0.8321547615015975	0.20613017053550856	-0.12190676910144273	0.6466594310091915	0.15536557300645665	-0.10441918030184111	0.6660308557239053	0.19435100831554103	-0.16926181426903264	0.8741735037226958	0.32727124877704805	1.3534195466238574	0.6436096722398854	0.32599470583857215	1.5930294050236973	0.6006809029086568	0.3278188620883994	1.4741952134194634	0.581451154380404	0.47976604853552507	1.2444252791280253	0.6714572615743788	0.475374717732269	0.956941302722203	0.6332895220637211	0.3634906833004484	0.7446031331414272	0.5584574700928993	0.2905230985920477	0.6488365381344301	0.5495492547548582	0.29027205061910966	0.6396843632708188	0.5566595874809286	0.295581656962016	0.6458076373147665	0.5556428782334064	0.16533976343198822	1.2678475244127827	0.6846749814119539	0.16257782695056971	1.0117973736699082	0.6058484095361922	0.26181487864693975	0.7786390837484417	0.5186693604660514	0.33741168190155924	0.6991243602318067	0.4683520282941019	0.328766861360458	0.6648208988403416	0.4926353985998555	0.28365153039466556	0.6487317428371067	0.5479386386746039	
